<?xml version="1.0" encoding="UTF-8" standalone="no"?>
<svg
   width="18mm"
   height="18mm"
   viewBox="0 0 18 18.000001"
   version="1.1"
   id="svg8"
   inkscape:version="1.2.2 (732a01da63, 2022-12-09)"
   sodipodi:docname="Clock-Icon.svg"
   inkscape:export-filename="..\Textures\Clock-Icon.png"
   inkscape:export-xdpi="90.309998"
   inkscape:export-ydpi="90.309998"
   xmlns:inkscape="http://www.inkscape.org/namespaces/inkscape"
   xmlns:sodipodi="http://sodipodi.sourceforge.net/DTD/sodipodi-0.dtd"
   xmlns:xlink="http://www.w3.org/1999/xlink"
   xmlns="http://www.w3.org/2000/svg"
   xmlns:svg="http://www.w3.org/2000/svg"
   xmlns:rdf="http://www.w3.org/1999/02/22-rdf-syntax-ns#"
   xmlns:cc="http://creativecommons.org/ns#"
   xmlns:dc="http://purl.org/dc/elements/1.1/">
  <defs
     id="defs2">
    <linearGradient
       inkscape:collect="always"
       id="linearGradient971">
      <stop
         style="stop-color:#ffd66b;stop-opacity:1"
         offset="0"
         id="stop967" />
      <stop
         style="stop-color:#402e00;stop-opacity:0"
         offset="1"
         id="stop969" />
    </linearGradient>
    <linearGradient
       inkscape:collect="always"
       xlink:href="#linearGradient971"
       id="linearGradient9708"
       x1="89.150299"
       y1="143.59366"
       x2="105.1503"
       y2="159.59366"
       gradientUnits="userSpaceOnUse" />
    <clipPath
       clipPathUnits="userSpaceOnUse"
       id="clipPath9731">
      <g
         id="g9735"
         transform="translate(88.150298,142.59366)">
        <path
           id="path9733"
           style="color:#000000;fill:#000000;stroke-linecap:round;-inkscape-stroke:none"
           d="M 9,8.25 A 0.75,0.75 0 0 0 8.25,9 v 3.724609 a 0.75,0.75 0 0 0 0.75,0.75 0.75,0.75 0 0 0 0.75,-0.75 V 9 A 0.75,0.75 0 0 0 9,8.25 Z M 9,9 v 3.723713 m 3.662109,-8.1358224 a 0.75,0.75 0 0 0 -0.53125,0.2207031 L 8.4726563,8.4667969 A 0.75,0.75 0 0 0 8.46875,8.46875 L 8.4453125,8.4941406 9.5058594,9.5546875 9.53125,9.53125 A 0.75,0.75 0 0 0 9.5332,9.52734 l 3.658206,-3.6581994 a 0.75,0.75 0 0 0 0,-1.0605469 0.75,0.75 0 0 0 -0.529297,-0.2207031 z M 9,1 C 4.5905483,1 1,4.5905487 1,9 c 0,4.409451 3.5905483,8 8,8 4.409452,0 8,-3.590549 8,-8 C 17,4.5905487 13.409452,1 9,1 Z m 0,1.5 c 3.598792,0 6.5,2.9012082 6.5,6.5 0,3.598792 -2.901208,6.5 -6.5,6.5 C 5.4012076,15.5 2.5,12.598792 2.5,9 2.5,5.4012082 5.4012076,2.5 9,2.5 Z" />
      </g>
    </clipPath>
    <filter
       inkscape:collect="always"
       style="color-interpolation-filters:sRGB"
       id="filter11200"
       x="-0.0025245057"
       y="-0.0025243596"
       width="1.0050489"
       height="1.0050488">
      <feGaussianBlur
         inkscape:collect="always"
         stdDeviation="0.43560002"
         id="feGaussianBlur11202" />
    </filter>
  </defs>
  <sodipodi:namedview
     id="base"
     pagecolor="#454545"
     bordercolor="#666666"
     borderopacity="1.0"
     inkscape:pageopacity="0"
     inkscape:pageshadow="2"
     inkscape:zoom="3.959798"
     inkscape:cx="7.3236059"
     inkscape:cy="18.94036"
     inkscape:document-units="mm"
     inkscape:current-layer="layer1"
     inkscape:document-rotation="0"
     showgrid="false"
     fit-margin-top="0"
     fit-margin-left="0"
     fit-margin-right="0"
     fit-margin-bottom="0"
     inkscape:window-width="2498"
     inkscape:window-height="1417"
     inkscape:window-x="1912"
     inkscape:window-y="-8"
     inkscape:window-maximized="1"
     inkscape:snap-object-midpoints="true"
     inkscape:showpageshadow="0"
     inkscape:pagecheckerboard="0"
     inkscape:deskcolor="#818181"
     showguides="true">
    <inkscape:grid
       type="xygrid"
       id="grid3675" />
    <sodipodi:guide
       position="18.000001,18.000001"
       orientation="0.70710678,-0.70710678"
       id="guide3677"
       inkscape:locked="false" />
    <sodipodi:guide
       position="0,18.000001"
       orientation="-0.70710678,-0.70710678"
       id="guide3679"
       inkscape:locked="false" />
  </sodipodi:namedview>
  <metadata
     id="metadata5">
    <rdf:RDF>
      <cc:Work
         rdf:about="">
        <dc:format>image/svg+xml</dc:format>
        <dc:type
           rdf:resource="http://purl.org/dc/dcmitype/StillImage" />
      </cc:Work>
    </rdf:RDF>
  </metadata>
  <g
     inkscape:label="Layer 1"
     inkscape:groupmode="layer"
     id="layer1"
     transform="matrix(0.90598064,0,0,0.90598064,-79.01629,-128.34092)"
     style="display:inline">
    <g
       inkscape:groupmode="layer"
       id="layer3"
       inkscape:label="Shadow"
       transform="translate(86.228966,140.65755)"
       style="display:inline;filter:url(#filter11200)">
      <rect
         style="display:inline;opacity:1;fill:#000000;fill-opacity:1;fill-rule:evenodd;stroke:none;stroke-width:1.5;stroke-linecap:round;stroke-linejoin:round;stroke-dasharray:none;stroke-opacity:1;paint-order:markers fill stroke"
         id="rect10466"
         width="18"
         height="18.000002"
         x="88.150299"
         y="142.59366"
         transform="translate(-86.228965,-140.65755)"
         clip-path="url(#clipPath9731)"
         inkscape:label="Shadow" />
    </g>
    <rect
       style="display:inline;opacity:1;fill:#f1ad00;fill-opacity:1;fill-rule:evenodd;stroke:none;stroke-width:1.5;stroke-linecap:round;stroke-linejoin:round;stroke-dasharray:none;stroke-opacity:1;paint-order:markers fill stroke"
       id="rect10463"
       width="18"
       height="18.000002"
       x="88.150299"
       y="142.59366"
       transform="translate(1.1666667e-6)"
       clip-path="url(#clipPath9731)"
       inkscape:label="Color" />
    <rect
       style="display:inline;opacity:1;fill:url(#linearGradient9708);fill-opacity:1;fill-rule:evenodd;stroke:none;stroke-width:1.5;stroke-linecap:round;stroke-linejoin:round;stroke-dasharray:none;stroke-opacity:1;paint-order:markers fill stroke"
       id="rect9698"
       width="18"
       height="18.000002"
       x="88.150299"
       y="142.59366"
       transform="translate(1.1666667e-6)"
       clip-path="url(#clipPath9731)"
       inkscape:label="Gradient" />
  </g>
</svg>
